_________________________  Visit us at _________________________
  
http://p2pdl.com  ____________________________  http://p2pdl.com

Gambit 2012 BRRip 720p x264 AAC - PRiSTiNE

Genre: Comedy | Crime
Plot: An art curator decides to seek revenge on his abusive boss by 
conning him into buying a fake Monet, but his plan requires the help 
of an eccentric and unpredictable Texas rodeo queen.
Director: Michael Hoffman
Stars: Colin Firth, Cameron Diaz, Alan Rickman
Rated: Rated PG-13 for some suggestive content, partial nudity and a rude gesture

Info: 
http://www.imdb.com/title/tt0404978/

General
Complete name                  : Gambit 2012 BRRip 720p x264 AAC - PRiSTiNE.mp4
Format                         : MPEG-4
Format profile                 : Base Media
Codec ID                       : isom
File size                      : 501 MiB
Duration                       : 1h 29mn
Overall bit rate mode          : Variable
Overall bit rate               : 786 Kbps

Source                         : 720p.BluRay.X264-AMIABLE (Thanks)

Video
Format                         : AVC
Format/Info                    : Advanced Video Codec
Format profile                 : High 10@L4.1
Format settings, CABAC         : Yes
Codec ID/Info                  : Advanced Video Coding
Bit rate                       : 699 Kbps
Width                          : 1 280 pixels
Height                         : 544 pixels
Display aspect ratio           : 2.35:1
Frame rate mode                : Constant
Frame rate                     : 23.976 fps
Bit depth                      : 10 bits
Stream size                    : 445 MiB (89%)
Writing library                : x264 core 129 r2245 bc13772

Audio
Format                         : AAC
Bit rate mode                  : Variable
Bit rate                       : 83.9 Kbps
Channel(s)                     : 2 channels
Channel positions              : Front: L R
Sampling rate                  : 48.0 KHz / 24.0 KHz
Stream size                    : 53.5 MiB (11%)
Language                       : English

Subtitle                       : Yes (English)

Screens: 
http://imgr.us/images/y34g28cu1csh29sikibg.jpg 
http://imgr.us/images/5wd7yalhozfx4ib2x7q0.jpg 
http://imgr.us/images/eryupfmk2atq5t25tt4k.jpg 
http://imgr.us/images/kz81ondfhdkszc2oxvei.jpg

Thumbs: 
http://imgr.us/images/625dsklb2rxrvygymfhj.jpg
----------------------------------------------------------------------------------------------------
Encoded using revolutionary 10bit encoding, which enables us to provide you more crispier 
and sharper images at small sizes, just make sure you follow our instructions without a fault.
Recommend to you to use latest version of VLC player. Install K-Lite Codec Pack or shark007 codecs
in case of any kind of problem in playback (For non-VLC Media Player users). Alternatively, install
Core AVC codecs, the fastest decoder that there is coupled with Community Center Codec Pack and play
on Windows Media Player Classic. Check sample to be sure.
Enjoy!